<svg width="49" height="48" viewBox="0 0 49 48" fill="none" xmlns="http://www.w3.org/2000/svg">
<path d="M3.26746 9.44642C3.31223 8.7129 3.78541 8.07849 4.4892 7.867C7.14976 7.06753 14.3122 5.26028 24.6934 5.26028C35.0746 5.26028 42.2371 7.06753 44.8976 7.867C45.6014 8.07849 46.0746 8.7129 46.1194 9.44642L47.8207 37.3236C47.8695 38.1228 47.4047 38.8583 46.6472 39.1178C43.5426 40.1814 35.0035 42.7397 24.6934 42.7397C14.3833 42.7397 5.84426 40.1814 2.73962 39.1178C1.98215 38.8583 1.51731 38.1228 1.56609 37.3236L3.26746 9.44642Z" fill="#545454"/>
<ellipse cx="24.6929" cy="8.72657" rx="21.0991" ry="3.46628" fill="#545454"/>
<ellipse cx="24.7998" cy="8.87726" rx="7.33883" ry="1.20566" fill="#B5B5B5"/>
</svg>
