<svg width="33" height="33" viewBox="0 0 33 33" fill="none" xmlns="http://www.w3.org/2000/svg">
<path d="M31.4349 18.0132C31.4349 26.0096 22.6313 31.0799 14.6349 31.0799C6.63854 31.0799 2.10156 23.4216 2.10156 15.4253C2.10156 7.42891 11.1719 1.74658 19.1682 1.74658C27.1646 1.74658 31.4349 10.0169 31.4349 18.0132Z" fill="#AE7D45"/>
<path d="M8.5 15.6987C8.25268 15.6987 8.05218 15.8992 8.05218 16.1465C8.05218 16.3938 8.25268 16.5943 8.5 16.5943V15.6987ZM24.3295 16.4631C24.5044 16.2883 24.5044 16.0047 24.3295 15.8298L21.4796 12.9799C21.3048 12.805 21.0212 12.805 20.8463 12.9799C20.6714 13.1548 20.6714 13.4384 20.8463 13.6132L23.3796 16.1465L20.8463 18.6797C20.6714 18.8546 20.6714 19.1382 20.8463 19.313C21.0212 19.4879 21.3048 19.4879 21.4796 19.313L24.3295 16.4631ZM8.5 16.5943H24.0129V15.6987H8.5V16.5943Z" fill="white"/>
</svg>
