<svg width="49" height="48" viewBox="0 0 49 48" fill="none" xmlns="http://www.w3.org/2000/svg">
<g clip-path="url(#clip0_1863_2519)">
<path fill-rule="evenodd" clip-rule="evenodd" d="M10.3504 8.03167C10.3504 8.03167 10.3504 8.01517 10.3504 7.99867C10.3504 7.99867 10.3339 7.99867 10.3174 7.99867H10.3339C9.19558 5.47462 12.3135 2.50515 14.7386 3.06605C15.481 5.34264 12.9239 8.84003 10.3669 8.01517H10.3504V8.03167ZM37.884 8.03167C37.884 8.03167 37.884 8.01517 37.9005 7.99867C37.9005 7.99867 37.917 7.99867 37.9335 7.99867C39.0553 5.47462 35.9373 2.50515 33.5123 3.08254C32.7699 5.35914 35.327 8.85652 37.8675 8.03167H37.884ZM38.7748 10.9681C38.7748 10.9681 38.7748 10.9681 38.7748 10.9846C37.5376 12.057 35.3929 10.5722 35.3435 8.9885C36.5147 8.18014 38.8738 9.21946 38.7913 10.9352L38.7748 10.9681ZM39.8637 10.7867C38.9398 9.49991 38.6759 6.7449 40.8205 5.32615C42.8991 6.48094 43.5425 9.82985 41.8433 11.1661C42.1567 11.7435 42.4537 12.3539 42.7012 12.9973C43.1136 11.9415 43.9384 11.1001 44.9448 10.9352C46.8749 12.7498 46.479 17.0886 43.8394 17.3855C43.9384 17.9959 43.9549 18.2599 44.0044 18.8867C44.7468 18.2434 46.0006 17.468 46.8914 17.666C48.0297 20.2065 46.2975 23.5884 44.0539 23.3905C44.0374 23.7039 44.0044 24.0173 43.9714 24.3308C44.6148 23.9514 46.3305 23.4894 47.0234 23.6544C48.0627 25.9475 45.3242 29.5274 42.9651 29.2139C42.8826 29.4614 42.8001 29.6923 42.7012 29.9233C43.8395 29.5604 45.1757 29.7748 46.0336 30.6492C45.8521 33.1732 42.7836 34.9054 40.903 33.2392C40.672 33.5692 40.4246 33.8991 40.1771 34.2125C41.4474 34.394 42.7012 35.2684 43.1631 36.5386C42.0743 38.5183 39.0223 38.6832 37.7355 36.7861C37.3726 37.116 37.0097 37.413 36.6302 37.7099C37.7355 38.2048 38.6924 39.2441 38.9233 40.4814C37.5706 42.1641 34.6341 41.7682 33.5948 39.7886C33.2813 39.97 32.9679 40.1515 32.6544 40.3165C33.6608 40.9928 34.4361 42.1641 34.5021 43.4014C32.9349 44.8202 30.0974 43.9458 29.322 41.8342C28.3322 42.1971 27.4414 42.4446 26.699 42.5931L26.4185 41.0258C28.9261 40.5474 33.3308 38.6997 36.8942 35.4993C39.3357 33.3052 41.3649 30.5007 42.1073 27.0528C42.4537 25.4031 42.6352 23.7204 42.6847 22.0707C42.6517 21.8232 42.6682 21.5923 42.6847 21.3613C42.6847 20.025 42.5857 18.7053 42.3877 17.468C41.9753 14.8615 41.1504 12.5354 39.8966 10.8362L39.8637 10.7867ZM40.6885 14.1026C40.771 12.3869 38.4119 11.3476 37.2406 12.1559C37.2736 13.7397 39.4182 15.2244 40.672 14.1356L40.6885 14.1026ZM41.6453 17.9464C42.0083 16.0493 39.5502 14.515 38.1315 15.2244C37.917 16.9896 40.0781 18.9857 41.6288 17.9794C41.6288 17.9794 41.6288 17.9794 41.6453 17.9794V17.9464ZM41.5794 23.1265C42.8001 21.2623 40.87 18.5238 39.0223 18.6558C38.016 20.454 39.4182 23.5389 41.5299 23.143C41.5299 23.143 41.5464 23.143 41.5629 23.143L41.5794 23.1265ZM29.6025 39.1617C31.5656 38.7822 31.7801 35.5158 30.3943 34.262C28.6126 34.7404 27.8208 37.8584 29.553 39.1287C29.553 39.1287 29.5695 39.1452 29.586 39.1287C29.586 39.1287 29.586 39.1287 29.619 39.1287L29.6025 39.1617ZM33.7267 37.2315C35.4589 36.1757 34.7331 32.9588 33.0669 32.2494C31.5326 33.3382 31.6811 36.6046 33.6772 37.215C33.6772 37.215 33.6772 37.215 33.6937 37.215C33.6937 37.215 33.7102 37.215 33.7267 37.215V37.2315ZM36.9767 34.493C38.4779 33.0577 37.1746 30.0553 35.4259 29.7418C34.1392 31.1606 34.8815 34.3445 36.9272 34.493C36.9272 34.493 36.9272 34.493 36.9437 34.493C36.9437 34.493 36.9602 34.493 36.9767 34.493ZM39.8637 31.54C41.0844 29.6758 39.1543 26.9373 37.3066 27.0693C36.3003 28.8675 37.7025 31.9524 39.8142 31.5565C39.8142 31.5565 39.8142 31.5565 39.8307 31.5565C39.8307 31.5565 39.8472 31.5565 39.8637 31.5565V31.54ZM41.3979 27.7292C42.6187 25.865 40.6885 23.11 38.8408 23.2585C37.8345 25.0567 39.2368 28.1416 41.3484 27.7457C41.3484 27.7457 41.3484 27.7457 41.3649 27.7457C41.3649 27.7457 41.3814 27.7457 41.3979 27.7457V27.7292ZM9.45953 10.9681C9.45953 10.9681 9.45953 10.9681 9.47603 10.9681C9.47603 10.9681 9.47603 10.9681 9.47603 10.9846C10.7133 12.057 12.8579 10.5722 12.9074 8.9885C11.7361 8.18014 9.37705 9.21946 9.45953 10.9352V10.9681ZM8.38722 10.7867C9.31106 9.49991 9.57501 6.7449 7.43039 5.32615C5.35176 6.48094 4.70837 9.82985 6.40757 11.1661C6.09413 11.7435 5.79718 12.3539 5.54972 12.9973C5.1373 11.9415 4.31244 11.1001 3.30612 10.9352C1.37596 12.7498 1.77189 17.0886 4.41143 17.3855C4.31244 17.9959 4.29595 18.2599 4.24646 18.8867C3.50409 18.2434 2.25031 17.468 1.35947 17.666C0.221168 20.2065 1.95336 23.5884 4.21346 23.3905C4.22996 23.7039 4.26295 24.0173 4.29595 24.3308C3.65256 23.9514 1.93686 23.4894 1.24399 23.6544C0.204671 25.9475 2.94319 29.5274 5.30227 29.2139C5.38475 29.4614 5.48374 29.6923 5.56622 29.9233C4.42792 29.5604 3.09166 29.7748 2.23381 30.6492C2.43178 33.1732 5.48374 34.9054 7.3644 33.2392C7.59536 33.5692 7.84282 33.8991 8.09028 34.2125C6.82 34.394 5.56622 35.2684 5.1043 36.5386C6.19311 38.5183 9.24507 38.6832 10.5318 36.7861C10.8948 37.116 11.2577 37.413 11.6371 37.7099C10.5318 38.2048 9.57501 39.2441 9.34405 40.4814C10.6968 42.1641 13.6333 41.7682 14.6726 39.7886C14.9861 39.97 15.2995 40.1515 15.6129 40.3165C14.6066 40.9928 13.8313 42.1641 13.7653 43.4014C15.3325 44.8202 18.17 43.9458 18.9454 41.8342C19.9352 42.1971 20.826 42.4446 21.5684 42.5931L21.8488 41.0258C19.3413 40.5474 14.9366 38.6997 11.3732 35.4993C8.93163 33.3052 6.90249 30.5007 6.16012 27.0528C5.81368 25.4031 5.63221 23.7204 5.58272 22.0707C5.61571 21.8232 5.59922 21.5923 5.58272 21.3613C5.58272 20.025 5.6817 18.7053 5.87967 17.468C6.29209 14.8615 7.11695 12.5354 8.37073 10.8362L8.38722 10.7867ZM7.56237 14.1026C7.47988 12.3869 9.83897 11.3476 11.0103 12.1559C10.9773 13.7397 8.81615 15.2244 7.57887 14.1356L7.56237 14.1026ZM6.58904 17.9464C6.22611 16.0493 8.68417 14.515 10.1029 15.2244C10.3174 16.9896 8.15626 18.9857 6.60554 17.9794C6.60554 17.9794 6.60554 17.9794 6.58904 17.9794V17.9464ZM6.67153 23.1265C5.45074 21.2623 7.3809 18.5238 9.22857 18.6558C10.2349 20.454 8.83264 23.5389 6.72102 23.143C6.72102 23.143 6.72102 23.143 6.70452 23.143C6.70452 23.143 6.70452 23.143 6.67153 23.143V23.1265ZM18.6319 39.1617C16.6688 38.7822 16.4543 35.5158 17.8401 34.262C19.6217 34.7404 20.4136 37.8584 18.6814 39.1287C18.6814 39.1287 18.6649 39.1452 18.6484 39.1287C18.6484 39.1287 18.6484 39.1287 18.6319 39.1287V39.1617ZM14.5076 37.2315C12.7754 36.1757 13.5013 32.9588 15.1675 32.2494C16.7018 33.3382 16.5533 36.6046 14.5571 37.215C14.5571 37.215 14.5571 37.215 14.5406 37.215C14.5406 37.215 14.5241 37.215 14.5076 37.215V37.2315ZM11.2742 34.493C9.77298 33.0577 11.0762 30.0553 12.8249 29.7418C14.1117 31.1606 13.3693 34.3445 11.3237 34.493C11.3237 34.493 11.3237 34.493 11.3072 34.493C11.3072 34.493 11.3072 34.493 11.2742 34.493ZM8.38722 31.54C7.16644 29.6758 9.0966 26.9373 10.9443 27.0693C11.9506 28.8675 10.5483 31.9524 8.43672 31.5565C8.43672 31.5565 8.43671 31.5565 8.42022 31.5565C8.42022 31.5565 8.40372 31.5565 8.38722 31.5565V31.54ZM6.8365 27.7292C5.61571 25.865 7.54587 23.11 9.39355 23.2585C10.3999 25.0567 8.99761 28.1416 6.88599 27.7457C6.88599 27.7457 6.88599 27.7457 6.86949 27.7457C6.86949 27.7457 6.85299 27.7457 6.8365 27.7457V27.7292Z" fill="#545454"/>
</g>
<path d="M24.1177 10.508L21.5146 15.8214L15.6017 16.6781L19.885 20.8657L18.8609 26.6892L24.1181 23.8873L29.3749 26.6892L28.3593 20.8661L32.6346 16.6786L26.7544 15.8214L24.1177 10.508Z" fill="#545454"/>
<path fill-rule="evenodd" clip-rule="evenodd" d="M24.1155 9.65631C24.4398 9.65549 24.7364 9.8389 24.8806 10.1294L27.3189 15.043L32.7574 15.8358C33.0778 15.8825 33.344 16.1068 33.4443 16.4146C33.5446 16.7224 33.4618 17.0604 33.2305 17.287L29.2753 21.1611L30.2139 26.5429C30.2698 26.8635 30.1381 27.188 29.8745 27.3789C29.6109 27.5699 29.2616 27.5939 28.9743 27.4408L24.1181 24.8524L19.2615 27.4408C18.9741 27.594 18.6245 27.5698 18.3608 27.3786C18.0972 27.1873 17.9657 26.8625 18.0221 26.5417L18.9684 21.1606L15.0063 17.2871C14.7746 17.0606 14.6915 16.7223 14.792 16.4142C14.8924 16.1061 15.1589 15.8817 15.4795 15.8353L20.9476 15.043L23.3529 10.1333C23.4956 9.84206 23.7912 9.65714 24.1155 9.65631ZM24.1226 12.4337L22.2794 16.1961C22.1557 16.4487 21.9152 16.6239 21.6368 16.6642L17.4293 17.2739L20.4804 20.2567C20.6814 20.4532 20.7725 20.7363 20.7238 21.0132L20.0023 25.1158L23.7176 23.1357C23.9679 23.0023 24.2683 23.0023 24.5187 23.1358L28.2362 25.1172L27.5203 21.0124C27.4722 20.7362 27.5631 20.4539 27.7634 20.2577L30.8103 17.2733L26.6315 16.6641C26.355 16.6238 26.1158 16.4503 25.9915 16.1999L24.1226 12.4337Z" fill="#545454"/>
<defs>
<clipPath id="clip0_1863_2519">
<rect width="46.2578" height="41.0612" fill="white" transform="translate(1 3)"/>
</clipPath>
</defs>
</svg>
