<svg width="49" height="48" viewBox="0 0 49 48" fill="none" xmlns="http://www.w3.org/2000/svg">
<g clip-path="url(#clip0_1863_2387)">
<path fill-rule="evenodd" clip-rule="evenodd" d="M24.5172 1L2 23.022H45.8257L24.5172 1Z" fill="#B5B5B5"/>
<path fill-rule="evenodd" clip-rule="evenodd" d="M4.84375 48L4.85137 22.9814L42.7805 22.7046L43.3163 47.8705L4.84375 48Z" fill="#545454"/>
<path d="M22.4178 28.6291H11.8359V40.0744H22.4178V28.6291Z" fill="#B5B5B5"/>
<path d="M17.2031 28.5529V40.0744" stroke="#545454" stroke-width="0.759293" stroke-miterlimit="10"/>
<path d="M11.4531 34.4394H22.4159" stroke="#545454" stroke-width="0.759293" stroke-miterlimit="10"/>
<path fill-rule="evenodd" clip-rule="evenodd" d="M32.2217 31.2625C29.9159 31.2625 28.0469 33.0579 28.0469 35.2749V46.2706H36.3966V35.2749C36.3966 33.0579 34.5275 31.2625 32.2217 31.2625Z" fill="#B5B5B5"/>
<path d="M17.0861 2.21132H11.9844V16.5414H17.0861V2.21132Z" fill="#545454"/>
<path d="M46.0288 47.2712H2.20312V47.9975H46.0288V47.2712Z" fill="#B5B5B5"/>
<path d="M22.7486 28.2863H11.4531V40.0744H22.7486V28.2863Z" stroke="#545454" stroke-width="0.886265" stroke-miterlimit="10"/>
<path d="M30.542 39.5995C30.542 39.9627 30.2474 40.2572 29.8843 40.2572C29.5211 40.2572 29.2266 39.9627 29.2266 39.5995C29.2266 39.2364 29.5211 38.9418 29.8843 38.9418C30.2474 38.9418 30.542 39.2364 30.542 39.5995Z" fill="#545454"/>
</g>
<defs>
<clipPath id="clip0_1863_2387">
<rect width="44.0289" height="47" fill="white" transform="translate(2 1)"/>
</clipPath>
</defs>
</svg>
