<svg width="32" height="33" viewBox="0 0 32 33" fill="none" xmlns="http://www.w3.org/2000/svg">
<path d="M10.3974 2.89941H21.5974C25.8641 2.89941 29.3307 6.36608 29.3307 10.6327V21.8327C29.3307 23.8838 28.516 25.8508 27.0657 27.301C25.6154 28.7513 23.6484 29.5661 21.5974 29.5661H10.3974C6.13073 29.5661 2.66406 26.0994 2.66406 21.8327V10.6327C2.66406 8.58174 3.47882 6.61474 4.9291 5.16445C6.37938 3.71417 8.34639 2.89941 10.3974 2.89941ZM10.1307 5.56608C8.85769 5.56608 7.63679 6.07179 6.73662 6.97197C5.83644 7.87214 5.33073 9.09304 5.33073 10.3661V22.0994C5.33073 24.7527 7.4774 26.8994 10.1307 26.8994H21.8641C23.1371 26.8994 24.358 26.3937 25.2582 25.4935C26.1583 24.5934 26.6641 23.3725 26.6641 22.0994V10.3661C26.6641 7.71275 24.5174 5.56608 21.8641 5.56608H10.1307ZM22.9974 7.56608C23.4394 7.56608 23.8633 7.74168 24.1759 8.05424C24.4885 8.3668 24.6641 8.79072 24.6641 9.23275C24.6641 9.67477 24.4885 10.0987 24.1759 10.4113C23.8633 10.7238 23.4394 10.8994 22.9974 10.8994C22.5554 10.8994 22.1314 10.7238 21.8189 10.4113C21.5063 10.0987 21.3307 9.67477 21.3307 9.23275C21.3307 8.79072 21.5063 8.3668 21.8189 8.05424C22.1314 7.74168 22.5554 7.56608 22.9974 7.56608ZM15.9974 9.56608C17.7655 9.56608 19.4612 10.2685 20.7114 11.5187C21.9617 12.7689 22.6641 14.4646 22.6641 16.2327C22.6641 18.0009 21.9617 19.6965 20.7114 20.9468C19.4612 22.197 17.7655 22.8994 15.9974 22.8994C14.2293 22.8994 12.5336 22.197 11.2833 20.9468C10.0331 19.6965 9.33073 18.0009 9.33073 16.2327C9.33073 14.4646 10.0331 12.7689 11.2833 11.5187C12.5336 10.2685 14.2293 9.56608 15.9974 9.56608ZM15.9974 12.2327C14.9365 12.2327 13.9191 12.6542 13.169 13.4043C12.4188 14.1545 11.9974 15.1719 11.9974 16.2327C11.9974 17.2936 12.4188 18.311 13.169 19.0612C13.9191 19.8113 14.9365 20.2327 15.9974 20.2327C17.0583 20.2327 18.0757 19.8113 18.8258 19.0612C19.576 18.311 19.9974 17.2936 19.9974 16.2327C19.9974 15.1719 19.576 14.1545 18.8258 13.4043C18.0757 12.6542 17.0583 12.2327 15.9974 12.2327Z" fill="#333333"/>
</svg>
